<svg id="svg" version="1.1" xmlns="http://www.w3.org/2000/svg" xmlns:xlink="http://www.w3.org/1999/xlink" width="400" height="400" viewBox="0, 0, 400,400"><g id="svgg"><path id="path0" d="M282.227 90.624 C 263.890 94.325,262.919 94.607,261.718 96.577 C 259.890 99.575,260.815 100.971,267.969 106.005 C 271.995 108.839,273.669 110.244,273.759 110.867 C 273.860 111.569,269.823 115.865,253.447 132.486 C 242.205 143.894,228.525 157.782,223.047 163.346 C 213.836 172.702,212.985 173.463,211.751 173.451 C 210.539 173.439,209.539 172.570,200.814 163.954 C 171.132 134.640,173.308 136.525,169.141 136.524 C 164.569 136.523,165.497 135.709,135.629 165.954 C 94.942 207.156,98.431 203.257,98.444 207.507 C 98.461 212.893,104.223 216.745,109.172 214.677 C 110.295 214.208,118.460 206.221,139.773 184.742 L 168.842 155.448 170.847 157.297 C 171.949 158.315,180.201 166.361,189.184 175.179 C 207.125 192.790,208.016 193.509,211.879 193.500 C 215.679 193.491,215.265 193.868,250.786 158.108 C 281.751 126.934,284.660 124.111,285.551 124.374 C 286.086 124.532,288.018 126.320,289.844 128.346 C 295.937 135.109,300.333 134.874,301.311 127.734 C 301.444 126.768,302.609 118.727,303.901 109.867 C 306.698 90.684,306.697 90.710,304.947 88.801 C 302.893 86.560,302.015 86.631,282.227 90.624 M270.935 177.360 C 269.336 177.838,267.250 179.987,266.795 181.623 C 266.551 182.503,266.410 204.224,266.408 241.226 L 266.406 299.444 267.285 301.184 C 269.067 304.711,268.956 304.688,283.951 304.688 C 298.782 304.687,298.994 304.650,300.679 301.717 L 301.554 300.195 301.461 240.556 C 301.354 172.790,301.732 179.719,298.039 177.832 C 296.204 176.894,273.797 176.504,270.935 177.360 M218.691 210.546 C 217.906 210.965,216.851 211.971,216.347 212.783 L 215.430 214.258 215.430 257.227 C 215.430 299.493,215.442 300.217,216.211 301.522 C 217.990 304.542,217.662 304.479,232.136 304.605 C 245.934 304.726,246.411 304.672,248.143 302.804 C 250.033 300.765,250.000 301.567,250.000 257.056 L 250.000 215.009 249.121 213.289 C 247.382 209.886,247.789 209.973,233.077 209.872 C 220.880 209.789,220.033 209.829,218.691 210.546 M167.383 228.796 C 166.028 229.125,164.001 230.911,163.429 232.281 C 162.389 234.769,162.837 300.388,163.903 301.827 C 166.052 304.727,165.824 304.688,180.469 304.688 C 200.046 304.688,197.852 309.495,197.852 266.602 L 197.852 233.008 196.958 231.571 C 195.142 228.650,194.369 228.510,180.443 228.561 C 173.690 228.586,167.813 228.692,167.383 228.796 M115.235 247.697 C 114.698 247.915,113.846 248.479,113.342 248.949 C 111.271 250.883,111.328 250.115,111.328 275.970 C 111.328 302.691,111.250 301.857,113.922 303.672 L 115.416 304.688 128.744 304.688 C 148.259 304.688,146.256 307.848,146.400 276.827 C 146.525 250.092,146.572 250.610,143.844 248.528 L 142.445 247.461 129.328 247.380 C 121.150 247.330,115.843 247.449,115.235 247.697 " stroke="none" fill="#f2efe4" fill-rule="evenodd"></path><path id="path1" d="M108.668 38.703 C 109.164 38.828,107.694 39.064,105.400 39.227 C 103.107 39.391,100.844 39.402,100.371 39.252 C 99.880 39.096,99.606 39.132,99.733 39.337 C 100.011 39.787,91.218 41.187,90.582 40.794 C 90.303 40.621,90.216 40.670,90.366 40.912 C 90.669 41.403,88.098 41.962,87.396 41.558 C 87.131 41.406,87.052 41.433,87.221 41.618 C 87.580 42.012,81.247 44.185,80.710 43.853 C 80.502 43.724,80.483 43.847,80.665 44.142 C 80.901 44.524,80.767 44.598,80.139 44.434 C 79.593 44.291,79.388 44.362,79.556 44.634 C 79.726 44.910,79.562 44.957,79.080 44.772 C 78.675 44.617,78.467 44.613,78.618 44.764 C 78.991 45.137,73.015 48.068,72.489 47.769 C 72.259 47.638,72.203 47.677,72.364 47.855 C 72.673 48.195,69.573 50.253,69.014 50.080 C 68.837 50.025,68.803 50.161,68.939 50.381 C 69.166 50.747,68.640 50.956,67.842 50.818 C 67.665 50.787,67.626 50.933,67.755 51.143 C 68.045 51.611,66.629 52.425,66.200 52.037 C 66.030 51.883,66.005 51.958,66.145 52.203 C 66.420 52.685,64.511 54.157,63.867 53.961 C 63.652 53.895,63.607 53.971,63.766 54.131 C 64.184 54.549,63.277 55.508,62.749 55.207 C 62.504 55.067,62.418 55.080,62.556 55.235 C 62.872 55.588,59.518 59.180,58.873 59.180 C 58.612 59.180,58.394 59.355,58.388 59.570 C 58.368 60.337,56.938 62.098,56.538 61.850 C 56.313 61.712,56.229 61.760,56.352 61.958 C 56.645 62.432,54.497 65.304,54.127 64.934 C 53.970 64.777,53.896 64.824,53.963 65.039 C 54.146 65.624,52.270 68.751,51.880 68.510 C 51.695 68.395,51.568 68.446,51.599 68.623 C 51.744 69.456,51.521 69.942,51.112 69.689 C 50.824 69.511,50.767 69.583,50.954 69.886 C 51.116 70.148,50.996 70.658,50.689 71.021 C 50.381 71.383,49.904 72.249,49.628 72.944 C 49.353 73.640,49.010 74.136,48.866 74.047 C 48.723 73.958,48.586 74.180,48.564 74.540 C 48.500 75.554,45.474 82.454,45.210 82.189 C 45.080 82.060,45.078 82.350,45.205 82.835 C 45.354 83.405,45.289 83.625,45.020 83.459 C 44.753 83.294,44.683 83.505,44.825 84.045 C 44.966 84.585,44.896 84.795,44.629 84.631 C 44.363 84.466,44.293 84.677,44.434 85.217 C 44.566 85.722,44.499 85.964,44.267 85.820 C 44.044 85.682,43.880 86.084,43.880 86.770 C 43.880 87.424,43.719 88.076,43.522 88.218 C 43.325 88.360,43.120 89.180,43.067 90.039 C 43.013 90.898,42.825 91.650,42.648 91.709 C 42.470 91.768,42.406 92.364,42.504 93.034 C 42.614 93.779,42.533 94.159,42.296 94.013 C 42.065 93.870,41.984 94.161,42.094 94.738 C 42.196 95.269,42.126 95.704,41.940 95.704 C 41.754 95.705,41.573 96.872,41.539 98.297 C 41.501 99.847,41.285 101.006,41.000 101.181 C 40.739 101.343,40.646 101.671,40.794 101.910 C 40.942 102.149,40.938 104.467,40.787 107.060 C 40.635 109.654,40.405 111.604,40.275 111.395 C 39.763 110.569,40.016 288.695,40.532 292.578 C 41.237 297.877,42.567 305.526,42.870 306.015 C 43.011 306.244,43.170 306.698,43.224 307.024 C 44.458 314.607,50.468 327.047,56.338 334.169 C 59.247 337.699,66.767 344.785,68.122 345.273 C 68.360 345.359,68.643 345.557,68.750 345.712 C 69.131 346.262,73.957 349.219,74.475 349.219 C 74.764 349.219,75.000 349.353,75.000 349.517 C 75.000 350.072,83.441 353.614,87.820 354.896 C 101.642 358.945,97.147 358.789,200.000 358.789 C 299.050 358.789,293.793 358.906,306.055 356.434 C 313.044 355.025,324.323 350.890,324.935 349.512 C 325.007 349.351,325.287 349.219,325.558 349.219 C 326.024 349.219,330.832 346.282,331.250 345.742 C 331.357 345.603,331.942 345.173,332.550 344.786 C 335.863 342.676,345.312 333.004,345.313 331.723 C 345.313 331.499,345.466 331.257,345.655 331.185 C 347.550 330.464,354.865 315.190,356.286 308.984 C 356.459 308.232,356.955 306.220,357.390 304.512 C 358.409 300.512,359.228 294.367,359.789 286.523 C 360.261 279.909,360.198 107.898,359.723 108.664 C 359.592 108.875,359.360 107.015,359.207 104.531 C 359.054 102.048,359.030 99.851,359.154 99.650 C 359.278 99.450,359.197 99.225,358.974 99.150 C 358.751 99.076,358.531 97.848,358.484 96.421 C 358.437 94.995,358.289 93.895,358.154 93.977 C 357.826 94.178,357.344 91.066,357.632 90.601 C 357.757 90.399,357.685 90.234,357.473 90.234 C 357.049 90.234,356.024 86.167,356.162 85.036 C 356.210 84.647,356.092 84.427,355.900 84.545 C 355.532 84.773,354.902 82.859,355.236 82.525 C 355.343 82.417,355.163 82.060,354.834 81.731 C 354.505 81.402,354.321 80.808,354.425 80.410 C 354.529 80.012,354.468 79.777,354.289 79.888 C 353.848 80.160,353.394 78.638,353.746 78.068 C 353.911 77.802,353.857 77.718,353.617 77.867 C 353.153 78.154,352.615 77.071,352.951 76.527 C 353.072 76.332,352.994 76.172,352.777 76.172 C 352.365 76.172,349.870 71.249,349.870 70.435 C 349.870 70.177,349.679 69.999,349.447 70.041 C 349.214 70.083,349.050 69.798,349.082 69.408 C 349.114 69.017,349.040 68.799,348.917 68.921 C 348.581 69.257,346.490 65.932,346.761 65.493 C 346.891 65.284,346.794 65.239,346.545 65.392 C 346.142 65.641,345.918 65.174,346.047 64.355 C 346.073 64.194,345.944 64.106,345.761 64.160 C 345.297 64.296,342.577 60.678,342.901 60.354 C 343.046 60.210,342.987 60.150,342.771 60.221 C 342.321 60.370,336.475 54.645,336.622 54.199 C 336.675 54.038,336.587 53.945,336.426 53.993 C 335.850 54.164,333.996 52.641,334.246 52.203 C 334.386 51.958,334.361 51.883,334.191 52.037 C 333.761 52.425,332.346 51.611,332.635 51.143 C 332.765 50.933,332.726 50.787,332.549 50.818 C 331.751 50.956,331.225 50.747,331.451 50.381 C 331.587 50.161,331.554 50.025,331.377 50.080 C 330.793 50.260,327.761 48.320,328.006 47.924 C 328.138 47.710,328.065 47.647,327.844 47.784 C 327.308 48.115,323.349 45.931,323.728 45.513 C 323.890 45.334,323.801 45.315,323.530 45.471 C 322.921 45.822,319.876 44.530,320.175 44.047 C 320.294 43.855,320.154 43.730,319.863 43.770 C 318.651 43.937,317.933 43.733,318.201 43.299 C 318.370 43.026,318.309 42.954,318.047 43.116 C 317.419 43.504,315.583 42.962,315.883 42.476 C 316.035 42.231,315.947 42.184,315.663 42.359 C 314.975 42.785,313.192 42.257,313.521 41.725 C 313.685 41.459,313.617 41.394,313.348 41.560 C 312.828 41.882,310.090 41.439,310.318 41.070 C 310.403 40.933,309.830 40.806,309.045 40.788 C 306.269 40.724,301.113 39.732,301.642 39.364 C 301.972 39.134,301.833 39.100,301.240 39.268 C 300.741 39.409,297.225 39.322,293.428 39.074 C 286.234 38.605,106.844 38.245,108.668 38.703 M304.102 87.714 C 305.138 88.261,305.778 88.922,306.003 89.679 C 306.189 90.307,306.511 91.149,306.719 91.550 C 306.970 92.036,306.954 92.421,306.673 92.702 C 306.440 92.935,306.250 94.222,306.250 95.563 C 306.250 96.904,306.086 98.102,305.885 98.226 C 305.684 98.350,305.620 99.064,305.741 99.812 C 305.864 100.572,305.797 101.172,305.588 101.172 C 305.382 101.172,305.288 101.678,305.379 102.297 C 305.470 102.917,305.363 103.535,305.141 103.672 C 304.916 103.811,304.836 104.520,304.960 105.281 C 305.093 106.101,305.020 106.641,304.775 106.641 C 304.552 106.641,304.461 106.990,304.573 107.416 C 304.684 107.843,304.643 108.502,304.480 108.881 C 304.318 109.260,304.223 110.054,304.270 110.645 C 304.317 111.235,304.183 111.719,303.972 111.719 C 303.761 111.719,303.680 112.068,303.792 112.494 C 303.903 112.921,303.862 113.580,303.701 113.959 C 303.539 114.338,303.445 115.220,303.491 115.918 C 303.538 116.616,303.422 117.188,303.233 117.188 C 303.045 117.188,302.963 117.803,303.051 118.555 C 303.139 119.307,303.059 119.923,302.875 119.925 C 302.690 119.927,302.502 121.012,302.456 122.335 C 302.410 123.658,302.234 124.843,302.065 124.968 C 301.896 125.093,301.731 126.181,301.699 127.386 C 301.623 130.187,299.525 134.030,298.584 133.089 C 298.452 132.957,298.089 133.105,297.777 133.417 C 297.145 134.049,295.520 134.205,295.896 133.598 C 296.033 133.376,295.875 133.312,295.525 133.446 C 294.461 133.854,290.039 130.053,290.039 128.730 C 290.039 128.505,289.834 128.320,289.584 128.320 C 289.334 128.320,288.341 127.485,287.377 126.465 C 284.993 123.941,285.874 123.352,273.960 135.449 C 268.089 141.411,263.064 146.230,262.795 146.159 C 262.525 146.087,262.439 146.163,262.603 146.327 C 263.018 146.742,260.917 148.857,260.389 148.556 C 260.154 148.422,260.093 148.458,260.255 148.636 C 260.625 149.044,259.394 150.449,258.922 150.157 C 258.731 150.039,258.623 150.175,258.682 150.459 C 258.741 150.746,258.528 150.918,258.203 150.846 C 257.881 150.775,257.753 150.852,257.920 151.019 C 258.334 151.433,254.662 155.103,254.134 154.803 C 253.901 154.670,253.843 154.708,254.005 154.886 C 254.375 155.294,253.144 156.699,252.672 156.407 C 252.481 156.289,252.373 156.356,252.432 156.556 C 252.610 157.159,228.480 181.663,227.987 181.381 C 227.740 181.240,227.674 181.273,227.839 181.455 C 228.243 181.899,225.771 184.409,225.231 184.102 C 224.997 183.968,224.940 184.008,225.106 184.191 C 225.511 184.635,222.253 187.923,221.713 187.616 C 221.480 187.483,221.425 187.524,221.592 187.707 C 221.959 188.111,218.367 191.848,217.893 191.555 C 217.709 191.441,217.607 191.581,217.666 191.865 C 217.725 192.152,217.470 192.359,217.094 192.329 C 216.720 192.300,216.500 192.413,216.604 192.581 C 216.860 192.996,215.658 193.426,215.139 193.105 C 214.910 192.964,214.836 193.031,214.974 193.255 C 216.084 195.050,208.956 194.214,206.214 192.227 C 203.759 190.448,177.758 164.732,178.007 164.329 C 178.138 164.116,178.073 164.049,177.861 164.179 C 177.650 164.310,176.524 163.444,175.359 162.256 C 174.195 161.067,172.242 159.221,171.020 158.154 L 168.798 156.214 154.644 170.471 C 146.859 178.313,140.318 184.622,140.107 184.491 C 139.896 184.361,139.830 184.428,139.962 184.641 C 140.093 184.853,139.392 185.803,138.403 186.752 C 137.415 187.700,136.747 188.213,136.920 187.891 C 137.107 187.543,137.090 187.437,136.879 187.630 C 136.683 187.809,136.523 188.092,136.523 188.258 C 136.523 188.675,113.252 212.490,112.944 212.388 C 112.807 212.342,112.695 212.418,112.695 212.557 C 112.695 213.152,111.136 214.463,110.649 214.276 C 110.356 214.164,110.210 214.225,110.326 214.412 C 110.663 214.957,108.166 215.819,106.250 215.819 C 104.311 215.819,101.838 214.955,102.182 214.398 C 102.303 214.203,102.257 214.068,102.080 214.099 C 101.178 214.256,100.685 213.923,99.599 212.424 C 98.946 211.523,98.504 210.547,98.616 210.255 C 98.740 209.931,98.647 209.831,98.376 209.999 C 98.074 210.186,97.995 209.949,98.129 209.250 C 98.237 208.687,98.174 208.320,97.990 208.433 C 97.807 208.547,97.656 208.102,97.656 207.445 C 97.656 206.788,97.808 206.250,97.993 206.250 C 98.178 206.250,98.240 205.784,98.131 205.215 C 97.996 204.507,98.073 204.267,98.376 204.454 C 98.656 204.627,98.738 204.516,98.598 204.152 C 98.477 203.835,98.742 203.211,99.189 202.765 C 99.635 202.318,100.001 201.821,100.001 201.660 C 100.002 201.499,103.254 198.123,107.228 194.158 C 111.202 190.193,114.453 186.915,114.453 186.873 C 114.453 186.670,117.115 184.167,117.422 184.082 C 117.615 184.028,117.781 183.765,117.791 183.496 C 117.801 183.228,117.996 183.043,118.224 183.087 C 118.452 183.131,119.148 182.604,119.769 181.917 L 120.898 180.667 119.727 181.620 C 119.082 182.145,124.546 176.563,131.868 169.216 C 139.190 161.869,145.093 155.770,144.986 155.663 C 144.879 155.556,144.976 155.469,145.201 155.469 C 145.426 155.469,149.630 151.427,154.543 146.487 C 159.457 141.547,163.696 137.504,163.965 137.503 C 164.233 137.501,164.453 137.305,164.453 137.068 C 164.453 136.830,164.717 136.736,165.039 136.860 C 165.361 136.984,165.625 136.920,165.625 136.719 C 165.625 136.517,165.889 136.454,166.211 136.577 C 166.533 136.701,166.797 136.620,166.797 136.398 C 166.797 136.168,167.724 135.993,168.945 135.993 C 170.127 135.993,171.094 136.135,171.094 136.307 C 171.094 136.480,171.570 136.621,172.152 136.621 C 172.734 136.621,173.276 136.819,173.356 137.061 C 173.437 137.302,173.696 137.500,173.932 137.500 C 174.168 137.500,176.474 139.653,179.057 142.285 C 181.639 144.917,183.237 146.455,182.607 145.703 C 181.977 144.951,185.500 148.291,190.437 153.125 C 195.375 157.959,199.384 161.973,199.348 162.045 C 199.169 162.400,200.951 164.004,201.291 163.794 C 201.507 163.660,201.572 163.731,201.437 163.950 C 201.301 164.169,201.579 164.680,202.053 165.085 C 202.905 165.811,202.909 165.810,202.378 165.039 C 202.082 164.609,202.981 165.400,204.375 166.797 C 211.923 174.354,211.755 174.287,214.899 171.031 C 216.110 169.777,217.275 168.750,217.487 168.750 C 217.700 168.750,218.114 168.442,218.409 168.066 C 218.906 167.433,218.888 167.426,218.164 167.962 C 217.392 168.534,217.392 168.531,218.119 167.678 C 218.523 167.204,219.034 166.926,219.253 167.062 C 219.473 167.197,219.542 167.130,219.407 166.912 C 219.272 166.694,224.119 161.613,230.178 155.621 C 236.237 149.629,241.150 144.582,241.096 144.405 C 241.041 144.227,241.150 144.177,241.337 144.293 C 241.524 144.409,242.188 143.939,242.811 143.249 L 243.945 141.995 242.773 142.939 C 242.129 143.458,247.576 137.920,254.879 130.633 C 262.181 123.345,268.109 117.238,268.053 117.061 C 267.996 116.884,268.086 116.821,268.252 116.922 C 268.418 117.023,268.781 116.860,269.058 116.561 C 269.335 116.261,269.446 116.016,269.304 116.016 C 269.161 116.016,269.259 115.758,269.521 115.442 C 269.783 115.127,270.138 114.907,270.311 114.954 C 270.484 115.001,270.599 114.917,270.566 114.768 C 270.534 114.619,271.064 113.915,271.744 113.205 C 272.934 111.963,273.662 109.576,272.852 109.572 C 272.069 109.568,268.812 107.246,269.036 106.851 C 269.162 106.628,269.127 106.570,268.958 106.723 C 268.593 107.052,265.234 104.827,265.234 104.255 C 265.234 104.038,265.078 103.957,264.886 104.075 C 264.114 104.553,260.878 100.981,260.741 99.499 C 260.608 98.072,261.244 96.103,261.839 96.097 C 262.013 96.095,262.044 95.914,261.908 95.693 C 261.772 95.473,261.837 95.341,262.053 95.400 C 262.268 95.460,262.683 95.189,262.974 94.798 C 263.286 94.381,264.223 93.997,265.248 93.867 C 266.207 93.744,267.176 93.501,267.401 93.325 C 267.626 93.149,268.153 93.009,268.573 93.013 C 268.992 93.018,269.863 92.915,270.508 92.785 C 271.152 92.655,272.031 92.482,272.461 92.400 C 272.891 92.319,273.242 92.215,273.242 92.170 C 273.242 92.124,273.682 92.030,274.219 91.961 C 274.756 91.892,275.678 91.735,276.268 91.611 C 277.280 91.400,278.107 91.233,280.175 90.821 C 280.659 90.725,281.494 90.559,282.031 90.451 C 282.568 90.344,283.535 90.154,284.180 90.029 C 284.824 89.905,285.747 89.720,286.229 89.619 C 286.712 89.517,287.547 89.346,288.084 89.239 C 288.621 89.131,289.500 88.956,290.037 88.848 C 290.574 88.741,291.410 88.570,291.893 88.468 C 293.765 88.075,295.187 87.839,296.981 87.623 C 298.006 87.500,298.930 87.261,299.034 87.092 C 299.396 86.507,302.547 86.894,304.102 87.714 M178.906 165.357 C 178.906 165.424,179.478 165.995,180.176 166.626 L 181.445 167.773 180.298 166.504 C 179.229 165.321,178.906 165.055,178.906 165.357 M296.669 176.936 C 296.796 177.142,297.149 177.214,297.453 177.098 C 298.019 176.880,301.060 179.603,300.879 180.165 C 300.825 180.332,300.967 180.469,301.195 180.469 C 301.422 180.469,301.500 180.645,301.367 180.859 C 301.234 181.074,301.331 181.250,301.582 181.250 C 301.870 181.250,301.950 181.600,301.799 182.203 C 301.667 182.727,301.736 183.264,301.952 183.398 C 302.211 183.558,302.342 203.209,302.338 241.527 C 302.334 279.601,302.200 299.214,301.948 298.828 C 301.673 298.409,301.631 298.594,301.800 299.478 C 302.106 301.071,301.113 302.789,299.066 304.208 L 297.529 305.273 284.670 305.386 C 277.174 305.452,271.900 305.354,272.026 305.150 C 272.145 304.958,271.782 304.888,271.219 304.996 C 270.520 305.130,270.283 305.051,270.470 304.749 C 270.652 304.455,270.518 304.392,270.073 304.563 C 269.652 304.725,269.498 304.667,269.658 304.407 C 269.803 304.173,269.620 304.018,269.234 304.048 C 268.817 304.081,268.605 303.875,268.685 303.516 C 268.757 303.193,268.685 303.060,268.526 303.219 C 268.090 303.655,267.212 302.767,266.579 301.253 C 265.796 299.380,265.723 182.011,266.504 181.171 C 266.772 180.882,267.045 180.386,267.110 180.069 C 267.270 179.288,269.539 177.302,269.968 177.568 C 270.158 177.685,270.313 177.576,270.313 177.325 C 270.313 177.075,270.576 176.971,270.898 177.094 C 271.221 177.218,271.484 177.149,271.484 176.941 C 271.484 176.433,296.355 176.428,296.669 176.936 M219.702 189.551 L 218.555 190.820 219.824 189.673 C 220.522 189.042,221.094 188.471,221.094 188.403 C 221.094 188.102,220.771 188.367,219.702 189.551 M301.653 204.688 C 301.653 205.439,301.734 205.747,301.832 205.371 C 301.930 204.995,301.930 204.380,301.832 204.004 C 301.734 203.628,301.653 203.936,301.653 204.688 M241.406 209.322 C 241.729 209.330,242.780 209.335,243.742 209.333 C 244.705 209.331,245.551 209.505,245.623 209.721 C 245.695 209.936,245.988 210.022,246.275 209.912 C 247.059 209.611,249.513 212.285,249.970 213.938 C 251.450 219.298,250.344 303.476,248.807 302.526 C 248.593 302.394,248.466 302.518,248.525 302.803 C 248.585 303.088,248.400 303.272,248.115 303.213 C 247.831 303.154,247.711 303.289,247.850 303.513 C 247.991 303.741,247.361 304.256,246.414 304.686 C 243.145 306.170,217.673 305.723,218.616 304.198 C 218.770 303.949,218.683 303.902,218.395 304.079 C 217.449 304.664,214.930 301.356,215.397 300.140 C 215.520 299.820,215.446 299.674,215.230 299.807 C 214.976 299.964,214.844 285.417,214.844 257.445 C 214.844 232.238,214.988 214.844,215.198 214.844 C 215.393 214.844,215.466 214.515,215.361 214.113 C 214.965 212.600,219.092 209.067,220.748 209.500 C 221.153 209.606,221.588 209.523,221.717 209.315 C 221.908 209.006,228.976 209.008,241.406 209.322 M301.669 217.578 C 301.669 218.545,301.745 218.940,301.838 218.457 C 301.931 217.974,301.931 217.183,301.838 216.699 C 301.745 216.216,301.669 216.611,301.669 217.578 M301.661 220.898 C 301.665 221.758,301.745 222.063,301.839 221.577 C 301.932 221.092,301.929 220.388,301.831 220.015 C 301.733 219.642,301.657 220.039,301.661 220.898 M193.359 228.503 C 193.359 228.711,193.604 228.788,193.903 228.673 C 194.512 228.440,197.371 230.764,197.071 231.248 C 196.966 231.419,197.162 231.667,197.507 231.800 C 197.905 231.952,198.061 232.325,197.932 232.817 C 197.821 233.244,197.889 233.594,198.083 233.594 C 198.292 233.594,198.438 247.296,198.438 267.015 C 198.438 288.939,198.305 300.355,198.051 300.198 C 197.832 300.062,197.763 300.215,197.893 300.552 C 198.180 301.300,196.569 303.614,196.004 303.265 C 195.769 303.120,195.694 303.185,195.835 303.413 C 195.974 303.637,195.605 304.148,195.016 304.547 C 193.836 305.348,167.632 305.939,168.117 305.154 C 168.237 304.960,167.946 304.872,167.469 304.959 C 166.495 305.136,163.511 302.920,163.893 302.303 C 164.018 302.100,163.888 301.982,163.603 302.041 C 163.289 302.106,163.098 301.804,163.117 301.270 C 163.134 300.786,163.002 300.391,162.824 300.391 C 162.143 300.391,162.434 233.266,163.121 231.817 C 163.709 230.577,165.515 228.905,166.797 228.412 C 167.844 228.009,193.359 228.097,193.359 228.503 M301.680 232.422 C 301.680 233.604,301.753 234.087,301.842 233.496 C 301.932 232.905,301.932 231.938,301.842 231.348 C 301.753 230.757,301.680 231.240,301.680 232.422 M301.653 236.328 C 301.653 237.080,301.734 237.388,301.832 237.012 C 301.930 236.636,301.930 236.021,301.832 235.645 C 301.734 235.269,301.653 235.576,301.653 236.328 M301.661 242.383 C 301.665 243.242,301.745 243.548,301.839 243.062 C 301.932 242.576,301.929 241.873,301.831 241.499 C 301.733 241.126,301.657 241.523,301.661 242.383 M143.365 247.622 C 144.114 248.033,144.678 248.573,144.619 248.823 C 144.560 249.073,144.685 249.170,144.896 249.040 C 145.361 248.752,146.612 251.039,146.282 251.574 C 146.153 251.783,146.234 251.953,146.461 251.953 C 146.748 251.953,146.875 259.415,146.874 276.270 C 146.872 303.592,147.068 301.746,143.912 304.154 L 142.445 305.273 129.719 305.397 C 117.052 305.521,113.662 305.261,114.307 304.217 C 114.474 303.947,114.394 303.897,114.094 304.082 C 113.474 304.466,111.627 302.756,111.898 302.049 C 112.024 301.722,111.929 301.628,111.648 301.802 C 111.343 301.990,111.279 301.863,111.453 301.411 C 111.594 301.042,111.556 300.836,111.368 300.952 C 111.180 301.068,110.921 300.770,110.792 300.289 C 110.403 298.839,110.510 252.665,110.901 252.907 C 111.096 253.028,111.163 252.774,111.051 252.344 C 110.938 251.914,111.037 251.563,111.270 251.563 C 111.503 251.563,111.594 251.300,111.471 250.980 C 111.343 250.648,111.515 250.294,111.871 250.158 C 112.215 250.026,112.405 249.772,112.295 249.594 C 112.012 249.135,114.724 247.146,115.217 247.451 C 115.442 247.589,115.625 247.516,115.625 247.289 C 115.625 246.435,141.775 246.749,143.365 247.622 M301.712 251.758 C 301.712 254.336,301.776 255.340,301.852 253.989 C 301.929 252.637,301.928 250.528,301.851 249.301 C 301.773 248.074,301.711 249.180,301.712 251.758 M301.743 275.195 C 301.743 285.078,301.793 289.065,301.855 284.055 C 301.917 279.045,301.917 270.959,301.855 266.086 C 301.793 261.214,301.742 265.313,301.743 275.195 M301.674 295.117 C 301.677 296.191,301.753 296.584,301.843 295.991 C 301.933 295.397,301.930 294.518,301.837 294.038 C 301.745 293.557,301.671 294.043,301.674 295.117 M124.512 306.144 C 123.706 306.228,122.388 306.228,121.582 306.144 C 120.776 306.060,121.436 305.991,123.047 305.991 C 124.658 305.991,125.317 306.060,124.512 306.144 M130.176 306.142 C 129.478 306.229,128.335 306.229,127.637 306.142 C 126.938 306.055,127.510 305.984,128.906 305.984 C 130.303 305.984,130.874 306.055,130.176 306.142 M137.212 306.134 C 136.732 306.227,135.853 306.229,135.259 306.140 C 134.666 306.050,135.059 305.974,136.133 305.971 C 137.207 305.968,137.693 306.042,137.212 306.134 M186.230 306.129 C 185.854 306.227,185.239 306.227,184.863 306.129 C 184.487 306.030,184.795 305.950,185.547 305.950 C 186.299 305.950,186.606 306.030,186.230 306.129 M188.965 306.129 C 188.589 306.227,187.974 306.227,187.598 306.129 C 187.222 306.030,187.529 305.950,188.281 305.950 C 189.033 305.950,189.341 306.030,188.965 306.129 M192.876 306.128 C 192.502 306.226,191.799 306.229,191.313 306.136 C 190.827 306.042,191.133 305.962,191.992 305.958 C 192.852 305.954,193.249 306.030,192.876 306.128 M223.730 306.129 C 223.354 306.227,222.739 306.227,222.363 306.129 C 221.987 306.030,222.295 305.950,223.047 305.950 C 223.799 305.950,224.106 306.030,223.730 306.129 M227.441 306.135 C 226.958 306.228,226.167 306.228,225.684 306.135 C 225.200 306.042,225.596 305.966,226.563 305.966 C 227.529 305.966,227.925 306.042,227.441 306.135 M233.105 306.129 C 232.729 306.227,232.114 306.227,231.738 306.129 C 231.362 306.030,231.670 305.950,232.422 305.950 C 233.174 305.950,233.481 306.030,233.105 306.129 M239.551 306.135 C 239.067 306.228,238.276 306.228,237.793 306.135 C 237.310 306.042,237.705 305.966,238.672 305.966 C 239.639 305.966,240.034 306.042,239.551 306.135 M244.238 306.142 C 243.540 306.229,242.397 306.229,241.699 306.142 C 241.001 306.055,241.572 305.984,242.969 305.984 C 244.365 305.984,244.937 306.055,244.238 306.142 M274.128 306.138 C 273.541 306.228,272.486 306.229,271.784 306.142 C 271.082 306.056,271.563 305.983,272.852 305.980 C 274.141 305.978,274.715 306.049,274.128 306.138 M282.129 306.142 C 281.431 306.229,280.288 306.229,279.590 306.142 C 278.892 306.055,279.463 305.984,280.859 305.984 C 282.256 305.984,282.827 306.055,282.129 306.142 M287.409 306.138 C 286.822 306.228,285.768 306.229,285.066 306.142 C 284.363 306.056,284.844 305.983,286.133 305.980 C 287.422 305.978,287.996 306.049,287.409 306.138 " stroke="none" fill="#3c87c9" fill-rule="evenodd"></path><path id="path2" d="M0.000 200.000 L 0.000 400.000 200.000 400.000 L 400.000 400.000 400.000 200.000 L 400.000 0.000 200.000 0.000 L 0.000 0.000 0.000 200.000 M299.222 38.783 C 325.157 42.174,342.470 53.999,352.524 75.185 C 354.390 79.119,355.102 80.979,356.831 86.441 C 357.789 89.470,359.276 98.212,359.834 104.102 C 360.592 112.112,360.592 281.246,359.834 289.258 C 355.945 330.337,335.004 353.348,297.266 358.014 C 287.584 359.211,275.884 359.374,200.000 359.369 C 113.049 359.364,108.014 359.241,95.161 356.808 C 71.154 352.265,52.757 336.539,45.119 314.034 C 42.292 305.705,41.156 300.197,40.236 290.362 C 39.655 284.146,39.662 112.622,40.244 105.915 C 42.088 84.673,48.111 70.247,60.547 57.289 C 72.504 44.829,86.513 39.548,111.328 38.143 C 120.739 37.611,294.789 38.203,299.222 38.783 " stroke="none" fill="#333332" fill-rule="evenodd"></path><path id="path3" d="M114.355 38.173 C 115.054 38.260,116.196 38.260,116.895 38.173 C 117.593 38.087,117.021 38.016,115.625 38.016 C 114.229 38.016,113.657 38.087,114.355 38.173 M283.496 38.177 C 284.409 38.259,285.903 38.259,286.816 38.177 C 287.729 38.094,286.982 38.027,285.156 38.027 C 283.330 38.027,282.583 38.094,283.496 38.177 M262.500 102.486 C 262.500 102.593,263.027 103.057,263.672 103.516 C 264.316 103.975,264.844 104.262,264.844 104.155 C 264.844 104.047,264.316 103.584,263.672 103.125 C 263.027 102.666,262.500 102.378,262.500 102.486 M265.437 104.612 C 265.656 104.855,267.414 106.165,269.343 107.523 C 273.752 110.627,273.859 111.038,271.030 114.016 L 268.945 116.211 271.191 114.076 C 273.653 111.736,273.948 110.749,272.559 109.507 C 271.454 108.520,264.897 104.013,265.437 104.612 M39.934 109.766 C 39.934 110.518,40.015 110.825,40.113 110.449 C 40.211 110.073,40.211 109.458,40.113 109.082 C 40.015 108.706,39.934 109.014,39.934 109.766 M303.216 116.016 C 303.216 116.768,303.296 117.075,303.394 116.699 C 303.493 116.323,303.493 115.708,303.394 115.332 C 303.296 114.956,303.216 115.264,303.216 116.016 M302.825 118.750 C 302.825 119.502,302.905 119.810,303.004 119.434 C 303.102 119.058,303.102 118.442,303.004 118.066 C 302.905 117.690,302.825 117.998,302.825 118.750 M360.348 197.266 C 360.348 240.342,360.393 257.964,360.449 236.426 C 360.505 214.888,360.505 179.644,360.449 158.105 C 360.393 136.567,360.348 154.189,360.348 197.266 M302.163 122.476 C 302.012 123.686,301.970 124.756,302.069 124.855 C 302.168 124.955,302.373 124.046,302.524 122.837 C 302.675 121.627,302.718 120.556,302.619 120.457 C 302.519 120.358,302.315 121.266,302.163 122.476 M269.910 138.965 C 210.785 198.690,216.270 193.528,211.914 193.544 C 207.871 193.560,207.636 193.369,187.305 173.500 C 177.207 163.633,168.888 155.611,168.817 155.675 C 168.746 155.739,172.788 159.805,177.799 164.712 C 182.810 169.618,190.881 177.548,195.734 182.333 C 212.272 198.639,211.427 198.687,229.506 180.414 C 275.791 133.629,284.786 124.609,285.156 124.609 C 285.584 124.609,286.051 125.061,290.923 130.189 C 294.009 133.437,296.083 134.516,297.509 133.616 C 298.154 133.210,298.113 133.181,297.171 133.380 C 295.318 133.773,293.663 132.666,289.694 128.379 C 287.575 126.091,285.541 124.219,285.174 124.219 C 284.808 124.219,277.939 130.854,269.910 138.965 M250.974 134.473 L 241.602 143.945 251.074 134.573 C 259.877 125.865,260.723 125.000,260.446 125.000 C 260.391 125.000,256.128 129.263,250.974 134.473 M301.396 127.795 C 301.077 130.197,300.290 131.848,299.181 132.442 C 298.735 132.681,298.472 132.978,298.597 133.102 C 298.914 133.419,300.367 132.038,300.995 130.824 C 301.528 129.793,302.215 125.781,301.858 125.781 C 301.751 125.781,301.543 126.688,301.396 127.795 M159.752 141.309 L 157.617 143.555 159.863 141.420 C 161.099 140.245,162.109 139.235,162.109 139.174 C 162.109 138.884,161.736 139.222,159.752 141.309 M190.316 153.308 C 195.195 158.238,199.238 162.191,199.301 162.093 C 199.363 161.994,195.371 157.961,190.430 153.129 L 181.445 144.344 190.316 153.308 M153.502 147.559 L 151.367 149.805 153.613 147.670 C 155.700 145.686,156.038 145.313,155.748 145.313 C 155.687 145.313,154.677 146.323,153.502 147.559 M226.559 159.277 L 217.383 168.555 226.660 159.378 C 235.281 150.851,236.114 150.000,235.837 150.000 C 235.781 150.000,231.606 154.175,226.559 159.277 M147.833 153.223 L 146.289 154.883 147.949 153.339 C 149.493 151.903,149.789 151.563,149.493 151.563 C 149.430 151.563,148.682 152.310,147.833 153.223 M165.223 159.191 C 163.629 160.796,162.472 162.109,162.653 162.109 C 163.051 162.109,168.464 156.615,168.263 156.414 C 168.185 156.336,166.817 157.586,165.223 159.191 M130.076 170.996 L 118.555 182.617 130.176 171.096 C 140.976 160.390,141.973 159.375,141.697 159.375 C 141.642 159.375,136.412 164.604,130.076 170.996 M149.218 175.292 C 124.067 200.773,110.730 214.135,110.109 214.472 C 105.252 217.118,99.562 214.132,98.162 208.203 L 97.655 206.055 97.856 208.008 C 98.462 213.896,104.913 217.601,109.961 214.960 C 110.822 214.510,114.751 210.835,118.709 206.779 C 122.660 202.728,134.072 191.196,144.067 181.152 C 154.062 171.108,162.151 162.802,162.043 162.694 C 161.935 162.586,156.164 168.255,149.218 175.292 M203.711 166.406 C 204.769 167.480,205.723 168.359,205.830 168.359 C 205.937 168.359,205.160 167.480,204.102 166.406 C 203.043 165.332,202.090 164.453,201.982 164.453 C 201.875 164.453,202.653 165.332,203.711 166.406 M215.030 170.905 C 213.951 172.083,213.173 173.047,213.303 173.047 C 213.432 173.047,214.446 172.080,215.556 170.898 C 216.666 169.717,217.443 168.753,217.283 168.756 C 217.123 168.760,216.109 169.727,215.030 170.905 M208.482 171.093 C 209.602 172.255,210.577 173.125,210.648 173.028 C 210.719 172.931,209.802 171.981,208.611 170.916 L 206.445 168.981 208.482 171.093 M277.637 176.855 C 281.128 176.920,286.841 176.920,290.332 176.855 C 293.823 176.790,290.967 176.737,283.984 176.737 C 277.002 176.737,274.146 176.790,277.637 176.855 M297.298 177.071 C 297.388 177.136,297.988 177.498,298.633 177.876 L 299.805 178.562 298.883 177.758 C 298.375 177.315,297.775 176.953,297.548 176.953 C 297.321 176.953,297.209 177.006,297.298 177.071 M266.253 181.477 C 265.672 182.991,265.998 299.863,266.587 301.273 C 268.215 305.170,269.818 305.526,285.095 305.387 L 297.529 305.273 299.066 304.208 C 302.463 301.852,302.148 308.214,302.155 241.992 L 302.162 183.398 301.960 241.797 C 301.737 306.291,301.940 301.459,299.369 303.481 C 297.434 305.003,296.022 305.136,283.203 305.007 C 269.468 304.868,269.501 304.875,267.560 302.042 L 266.602 300.643 266.602 240.751 C 266.602 207.811,266.576 180.859,266.546 180.859 C 266.515 180.859,266.383 181.137,266.253 181.477 M115.707 185.491 C 114.999 186.220,114.484 186.880,114.561 186.957 C 114.639 187.034,115.293 186.488,116.016 185.742 C 116.738 184.997,117.254 184.337,117.161 184.276 C 117.068 184.215,116.414 184.762,115.707 185.491 M107.808 193.652 L 101.758 199.805 107.910 193.755 C 111.294 190.427,114.063 187.659,114.063 187.602 C 114.063 187.323,113.428 187.937,107.808 193.652 M98.643 203.496 C 98.315 204.130,98.062 204.965,98.080 205.352 C 98.103 205.819,98.216 205.720,98.417 205.055 C 98.584 204.506,98.927 203.671,99.179 203.200 C 99.431 202.729,99.547 202.344,99.438 202.344 C 99.328 202.344,98.971 202.862,98.643 203.496 M225.509 209.276 C 227.614 209.346,230.954 209.346,232.930 209.275 C 234.907 209.204,233.184 209.147,229.102 209.147 C 225.020 209.148,223.403 209.205,225.509 209.276 M218.538 210.103 C 217.021 211.028,215.230 213.148,215.250 213.995 C 215.258 214.365,215.490 214.141,215.786 213.477 C 216.486 211.901,217.967 210.594,219.787 209.945 C 220.664 209.632,220.964 209.403,220.508 209.394 C 220.078 209.385,219.192 209.704,218.538 210.103 M247.136 210.572 C 247.817 211.008,248.740 212.103,249.187 213.007 C 249.634 213.910,250.000 214.406,250.000 214.109 C 250.000 212.790,247.338 209.748,246.205 209.772 C 246.036 209.776,246.455 210.136,247.136 210.572 M214.946 257.227 C 214.865 297.817,214.894 299.878,215.578 301.367 C 217.365 305.258,218.240 305.469,232.617 305.469 C 245.407 305.469,246.282 305.354,248.369 303.399 C 250.473 301.428,250.398 303.168,250.296 258.839 L 250.202 217.773 250.004 259.180 C 249.781 305.490,250.011 302.083,246.982 303.966 C 245.532 304.868,245.310 304.885,233.594 305.007 C 219.309 305.157,217.924 304.872,215.884 301.367 C 215.549 300.792,215.377 289.271,215.230 257.617 L 215.031 214.648 214.946 257.227 M250.091 216.016 C 250.091 216.768,250.171 217.075,250.269 216.699 C 250.368 216.323,250.368 215.708,250.269 215.332 C 250.171 214.956,250.091 215.264,250.091 216.016 M166.797 228.412 C 162.282 230.148,162.487 228.274,162.593 266.856 L 162.687 300.586 162.886 266.602 C 163.077 234.191,163.120 232.561,163.822 231.401 C 165.423 228.758,165.563 228.733,180.273 228.506 L 193.555 228.300 180.469 228.243 C 173.271 228.212,167.119 228.288,166.797 228.412 M194.336 228.970 C 194.766 229.207,195.565 229.773,196.112 230.228 C 196.659 230.683,196.530 230.483,195.825 229.785 C 195.120 229.087,194.320 228.521,194.049 228.528 C 193.777 228.534,193.906 228.733,194.336 228.970 M198.142 266.744 L 198.047 300.089 197.183 301.626 C 195.378 304.837,195.228 304.868,180.859 304.994 C 166.556 305.120,165.758 304.980,163.773 301.993 C 163.279 301.250,162.891 300.934,162.891 301.276 C 162.891 302.381,166.322 305.018,168.100 305.280 C 168.995 305.412,175.204 305.464,181.898 305.397 L 194.070 305.273 195.542 304.081 C 198.656 301.559,198.454 304.248,198.340 266.769 L 198.238 233.398 198.142 266.744 M128.906 247.256 C 143.981 247.485,143.989 247.487,145.651 250.352 C 146.099 251.125,146.470 251.564,146.475 251.327 C 146.493 250.463,144.692 248.303,143.365 247.598 C 142.107 246.930,140.998 246.882,128.717 246.963 L 115.430 247.050 128.906 247.256 M113.266 248.466 L 111.914 249.666 113.477 248.579 C 114.336 247.982,115.112 247.441,115.202 247.379 C 115.291 247.317,115.197 247.266,114.992 247.266 C 114.787 247.266,114.010 247.806,113.266 248.466 M110.793 252.441 C 110.664 252.925,110.559 263.779,110.561 276.563 C 110.565 308.190,108.845 305.601,129.719 305.397 L 142.445 305.273 143.912 304.154 C 147.077 301.739,146.883 303.625,146.783 276.172 L 146.694 251.758 146.492 276.367 L 146.289 300.977 145.379 302.252 C 143.540 304.831,143.318 304.870,129.688 305.003 C 109.159 305.203,110.844 307.936,111.014 274.707 C 111.080 261.977,111.109 251.562,111.081 251.562 C 111.052 251.562,110.923 251.958,110.793 252.441 M359.877 285.352 C 359.880 286.426,359.956 286.819,360.046 286.225 C 360.136 285.631,360.133 284.752,360.041 284.272 C 359.948 283.792,359.874 284.277,359.877 285.352 M39.955 286.133 C 39.958 287.207,40.034 287.600,40.124 287.006 C 40.214 286.413,40.211 285.534,40.119 285.053 C 40.026 284.573,39.953 285.059,39.955 286.133 M121.582 306.144 C 122.388 306.228,123.706 306.228,124.512 306.144 C 125.317 306.060,124.658 305.991,123.047 305.991 C 121.436 305.991,120.776 306.060,121.582 306.144 M127.637 306.142 C 128.335 306.229,129.478 306.229,130.176 306.142 C 130.874 306.055,130.303 305.984,128.906 305.984 C 127.510 305.984,126.938 306.055,127.637 306.142 M135.259 306.140 C 135.853 306.229,136.732 306.227,137.212 306.134 C 137.693 306.042,137.207 305.968,136.133 305.971 C 135.059 305.974,134.666 306.050,135.259 306.140 M184.863 306.129 C 185.239 306.227,185.854 306.227,186.230 306.129 C 186.606 306.030,186.299 305.950,185.547 305.950 C 184.795 305.950,184.487 306.030,184.863 306.129 M187.598 306.129 C 187.974 306.227,188.589 306.227,188.965 306.129 C 189.341 306.030,189.033 305.950,188.281 305.950 C 187.529 305.950,187.222 306.030,187.598 306.129 M191.313 306.136 C 191.799 306.229,192.502 306.226,192.876 306.128 C 193.249 306.030,192.852 305.954,191.992 305.958 C 191.133 305.962,190.827 306.042,191.313 306.136 M222.363 306.129 C 222.739 306.227,223.354 306.227,223.730 306.129 C 224.106 306.030,223.799 305.950,223.047 305.950 C 222.295 305.950,221.987 306.030,222.363 306.129 M225.684 306.135 C 226.167 306.228,226.958 306.228,227.441 306.135 C 227.925 306.042,227.529 305.966,226.563 305.966 C 225.596 305.966,225.200 306.042,225.684 306.135 M231.738 306.129 C 232.114 306.227,232.729 306.227,233.105 306.129 C 233.481 306.030,233.174 305.950,232.422 305.950 C 231.670 305.950,231.362 306.030,231.738 306.129 M237.793 306.135 C 238.276 306.228,239.067 306.228,239.551 306.135 C 240.034 306.042,239.639 305.966,238.672 305.966 C 237.705 305.966,237.310 306.042,237.793 306.135 M241.699 306.142 C 242.397 306.229,243.540 306.229,244.238 306.142 C 244.937 306.055,244.365 305.984,242.969 305.984 C 241.572 305.984,241.001 306.055,241.699 306.142 M271.784 306.142 C 272.486 306.229,273.541 306.228,274.128 306.138 C 274.715 306.049,274.141 305.978,272.852 305.980 C 271.563 305.983,271.082 306.056,271.784 306.142 M279.590 306.142 C 280.288 306.229,281.431 306.229,282.129 306.142 C 282.827 306.055,282.256 305.984,280.859 305.984 C 279.463 305.984,278.892 306.055,279.590 306.142 M285.066 306.142 C 285.768 306.229,286.822 306.228,287.409 306.138 C 287.996 306.049,287.422 305.978,286.133 305.980 C 284.844 305.983,284.363 306.056,285.066 306.142 M112.603 358.874 C 113.197 358.964,114.076 358.961,114.556 358.869 C 115.037 358.776,114.551 358.703,113.477 358.705 C 112.402 358.708,112.009 358.784,112.603 358.874 M285.645 358.874 C 286.235 358.963,287.202 358.963,287.793 358.874 C 288.384 358.784,287.900 358.711,286.719 358.711 C 285.537 358.711,285.054 358.784,285.645 358.874 M160.480 359.277 C 182.465 359.333,218.325 359.333,240.168 359.277 C 262.011 359.222,244.023 359.176,200.195 359.176 C 156.367 359.176,138.495 359.222,160.480 359.277 " stroke="none" fill="#2a547c" fill-rule="evenodd"></path><path id="path4" d="M112.305 38.328 C 105.030 38.678,98.808 39.321,101.953 39.397 C 102.920 39.420,105.293 39.269,107.227 39.061 C 112.153 38.532,287.075 38.544,294.319 39.074 C 304.224 39.799,312.041 41.319,318.750 43.825 C 319.385 44.062,319.590 44.057,319.336 43.809 C 316.865 41.400,302.245 38.912,286.914 38.293 C 275.258 37.822,122.166 37.853,112.305 38.328 M94.531 40.027 C 76.725 43.031,62.402 52.334,52.681 67.210 C 49.937 71.408,49.791 71.660,50.264 71.368 C 50.475 71.237,51.323 70.023,52.147 68.671 C 62.092 52.359,76.005 43.641,98.047 39.910 C 99.651 39.638,99.849 39.544,98.828 39.540 C 98.076 39.536,96.143 39.756,94.531 40.027 M322.656 45.560 C 334.462 51.113,345.696 62.159,351.142 73.571 C 351.841 75.035,352.497 76.149,352.599 76.047 C 353.719 74.927,343.980 61.075,338.425 55.887 C 333.325 51.124,322.503 44.123,320.313 44.170 C 319.990 44.177,321.045 44.802,322.656 45.560 M47.923 75.685 C 46.183 79.325,44.119 84.825,44.160 85.713 C 44.171 85.944,44.786 84.463,45.526 82.422 C 46.267 80.381,47.580 77.235,48.445 75.432 C 49.310 73.629,49.956 72.091,49.880 72.016 C 49.805 71.940,48.924 73.591,47.923 75.685 M352.910 77.148 C 354.153 80.488,354.830 82.019,354.991 81.858 C 355.224 81.624,353.540 77.296,353.007 76.758 C 352.750 76.499,352.718 76.631,352.910 77.148 M355.112 82.813 C 355.123 83.135,355.284 83.750,355.469 84.180 L 355.804 84.961 355.826 84.180 C 355.838 83.750,355.677 83.135,355.469 82.813 C 355.132 82.292,355.092 82.292,355.112 82.813 M356.013 85.775 C 356.171 86.186,356.482 87.369,356.704 88.405 C 356.926 89.441,357.194 90.202,357.300 90.096 C 357.598 89.797,356.556 85.541,356.117 85.270 C 355.875 85.120,355.835 85.312,356.013 85.775 M42.795 90.061 C 42.648 90.845,42.606 91.564,42.701 91.660 C 42.797 91.755,42.995 91.192,43.142 90.408 C 43.289 89.624,43.332 88.905,43.236 88.809 C 43.141 88.714,42.942 89.277,42.795 90.061 M357.507 91.211 C 357.511 91.641,357.648 92.520,357.813 93.164 C 358.080 94.217,358.111 94.237,358.118 93.359 C 358.122 92.822,357.985 91.943,357.813 91.406 C 357.567 90.641,357.501 90.599,357.507 91.211 M42.031 93.789 C 41.888 94.684,41.847 95.493,41.940 95.586 C 42.034 95.680,42.233 95.029,42.383 94.141 C 42.533 93.252,42.574 92.444,42.474 92.343 C 42.373 92.243,42.174 92.894,42.031 93.789 M358.474 96.680 C 358.593 97.969,358.757 99.097,358.838 99.186 C 359.099 99.477,358.901 96.713,358.574 95.508 C 358.365 94.737,358.330 95.139,358.474 96.680 M41.196 98.618 C 41.045 99.827,41.009 100.905,41.116 101.012 C 41.224 101.120,41.435 100.218,41.587 99.008 C 41.738 97.799,41.773 96.721,41.666 96.614 C 41.559 96.506,41.347 97.408,41.196 98.618 M359.261 104.102 C 359.374 106.680,359.534 108.862,359.616 108.952 C 359.871 109.229,359.698 104.228,359.368 101.758 C 359.153 100.153,359.120 100.892,359.261 104.102 M40.429 105.931 C 40.278 108.148,40.222 110.400,40.306 110.938 C 40.389 111.475,40.594 109.743,40.762 107.090 C 40.930 104.436,40.985 102.183,40.885 102.083 C 40.785 101.983,40.580 103.715,40.429 105.931 M359.952 141.406 C 359.952 158.271,360.000 165.171,360.058 156.738 C 360.117 148.306,360.117 134.507,360.058 126.074 C 360.000 117.642,359.952 124.541,359.952 141.406 M272.046 113.379 L 270.898 114.648 272.168 113.501 C 272.866 112.870,273.438 112.299,273.438 112.232 C 273.438 111.930,273.115 112.196,272.046 113.379 M40.029 143.164 C 40.029 159.277,40.078 165.926,40.137 157.939 C 40.196 149.952,40.196 136.768,40.137 128.642 C 40.078 120.516,40.029 127.051,40.029 143.164 M248.432 137.402 L 243.555 142.383 248.535 137.506 C 253.161 132.976,253.693 132.422,253.412 132.422 C 253.355 132.422,251.114 134.663,248.432 137.402 M186.523 150.000 C 188.232 151.719,189.718 153.125,189.825 153.125 C 189.933 153.125,188.623 151.719,186.914 150.000 C 185.205 148.281,183.720 146.875,183.612 146.875 C 183.505 146.875,184.815 148.281,186.523 150.000 M247.845 161.035 L 243.555 165.430 247.949 161.139 C 252.031 157.155,252.521 156.641,252.239 156.641 C 252.182 156.641,250.205 158.618,247.845 161.035 M174.805 161.328 C 176.297 162.832,177.606 164.063,177.713 164.063 C 177.821 164.063,176.688 162.832,175.195 161.328 C 173.703 159.824,172.394 158.594,172.287 158.594 C 172.179 158.594,173.312 159.824,174.805 161.328 M223.235 162.988 L 219.336 166.992 223.340 163.093 C 225.542 160.949,227.344 159.147,227.344 159.089 C 227.344 158.807,226.856 159.269,223.235 162.988 M206.055 169.141 C 207.979 171.074,209.642 172.656,209.749 172.656 C 209.857 172.656,208.370 171.074,206.445 169.141 C 204.521 167.207,202.858 165.625,202.751 165.625 C 202.643 165.625,204.130 167.207,206.055 169.141 M39.990 176.758 C 39.991 179.121,40.055 180.038,40.133 178.794 C 40.211 177.551,40.210 175.618,40.131 174.497 C 40.053 173.377,39.989 174.395,39.990 176.758 M124.015 177.441 L 120.508 181.055 124.121 177.547 C 127.477 174.290,127.912 173.828,127.629 173.828 C 127.570 173.828,125.944 175.454,124.015 177.441 M359.900 177.148 C 359.901 178.867,359.970 179.522,360.052 178.603 C 360.135 177.684,360.134 176.278,360.050 175.478 C 359.966 174.678,359.898 175.430,359.900 177.148 M192.773 178.906 C 194.049 180.195,195.181 181.250,195.288 181.250 C 195.395 181.250,194.440 180.195,193.164 178.906 C 191.888 177.617,190.757 176.563,190.649 176.563 C 190.542 176.563,191.498 177.617,192.773 178.906 M301.718 188.672 C 301.718 191.787,301.778 193.062,301.853 191.504 C 301.927 189.946,301.927 187.397,301.853 185.840 C 301.778 184.282,301.718 185.557,301.718 188.672 M39.965 185.742 C 39.967 187.031,40.040 187.512,40.127 186.809 C 40.214 186.107,40.212 185.053,40.123 184.466 C 40.034 183.879,39.963 184.453,39.965 185.742 M130.854 193.652 L 125.586 199.023 130.957 193.755 C 133.911 190.858,136.328 188.441,136.328 188.384 C 136.328 188.104,135.748 188.663,130.854 193.652 M39.950 192.969 C 39.950 193.936,40.026 194.331,40.119 193.848 C 40.213 193.364,40.213 192.573,40.119 192.090 C 40.026 191.606,39.950 192.002,39.950 192.969 M104.093 197.754 L 100.586 201.367 104.199 197.860 C 107.555 194.602,107.990 194.141,107.707 194.141 C 107.649 194.141,106.023 195.767,104.093 197.754 M301.709 198.633 C 301.710 200.996,301.774 201.913,301.852 200.669 C 301.929 199.426,301.929 197.493,301.850 196.372 C 301.771 195.252,301.708 196.270,301.709 198.633 M223.156 209.663 C 224.183 209.743,225.765 209.742,226.672 209.660 C 227.579 209.579,226.738 209.512,224.805 209.514 C 222.871 209.515,222.129 209.582,223.156 209.663 M232.715 209.651 C 233.198 209.744,233.989 209.744,234.473 209.651 C 234.956 209.558,234.561 209.481,233.594 209.481 C 232.627 209.481,232.231 209.558,232.715 209.651 M238.574 209.651 C 239.058 209.744,239.849 209.744,240.332 209.651 C 240.815 209.558,240.420 209.481,239.453 209.481 C 238.486 209.481,238.091 209.558,238.574 209.651 M242.094 209.651 C 242.580 209.745,243.283 209.741,243.657 209.643 C 244.030 209.546,243.633 209.469,242.773 209.474 C 241.914 209.478,241.608 209.558,242.094 209.651 M301.680 214.063 C 301.680 215.244,301.753 215.728,301.842 215.137 C 301.932 214.546,301.932 213.579,301.842 212.988 C 301.753 212.397,301.680 212.881,301.680 214.063 M301.653 223.438 C 301.653 224.189,301.734 224.497,301.832 224.121 C 301.930 223.745,301.930 223.130,301.832 222.754 C 301.734 222.378,301.653 222.686,301.653 223.438 M111.121 276.172 C 111.121 288.955,111.170 294.185,111.230 287.793 C 111.290 281.401,111.290 270.942,111.230 264.551 C 111.170 258.159,111.121 263.389,111.121 276.172 M122.363 304.980 C 125.747 305.045,131.284 305.045,134.668 304.980 C 138.052 304.915,135.283 304.861,128.516 304.861 C 121.748 304.861,118.979 304.915,122.363 304.980 M174.316 304.980 C 177.700 305.045,183.237 305.045,186.621 304.980 C 190.005 304.915,187.236 304.861,180.469 304.861 C 173.701 304.861,170.933 304.915,174.316 304.980 M226.880 304.980 C 230.169 305.045,235.443 305.045,238.598 304.979 C 241.754 304.914,239.063 304.860,232.617 304.861 C 226.172 304.861,223.590 304.914,226.880 304.980 M278.247 304.980 C 281.644 305.045,287.093 305.045,290.356 304.980 C 293.619 304.914,290.840 304.861,284.180 304.861 C 277.520 304.861,274.850 304.915,278.247 304.980 " stroke="none" fill="#7ba1c3" fill-rule="evenodd"></path></g></svg>